PathFileType	4	(X/Y/Z)	C:\Users\°ÂÌØÂü\Desktop\20210112\bx_y_0_1801-Unnamed.trc
DataRate	CameraRate	NumFrames	NumMarkers	Units	OrigDataRate	OrigDataStartFrame	OrigNumFrames
50.00	50.00	       6	0	mm	50.00	355	       708
Frame#	Time	
		

355	7.080	-682.61060	-76.65426	1554.81238	-702.51709	-57.92888	720.52716	-591.91431	-11.56112	802.05078	-637.74139	273.02988	880.97931	-584.87323	208.01065	816.59912	-696.88171	75.65160	579.15759				-689.02795	137.87759	578.15576	-728.05200	239.49422	579.90942	-674.38300	13.29604	521.74347	-770.61017	248.41515	506.11401	-675.52905	199.43483	535.10052	-722.95068	243.73941	644.23083	-666.43542	-69.27945	160.82297	-710.60034	151.44020	216.35049	-882.59894	295.78217	144.34956	-674.78082	53.48929	158.82190	-603.52045	17.07844	167.56895	-594.57068	222.97568	173.22688	-667.66357	299.14450	159.89316	-630.64929	307.40967	162.44566	-561.13593	261.90427	166.15057	-528.12280	304.28763	146.42749	-708.68201	104.33710	1853.84692	-695.26495	287.56818	1535.72900	-625.53607	-80.46748	158.20412	-518.15076	-72.56365	142.36031	-795.11401	170.79973	184.56461	-771.05371	220.36305	205.60356	-792.51227	89.15961	1060.02783	-768.80780	-5.13786	207.32811	-793.44897	56.72833	176.05797	-771.00684	-37.28384	490.04681	-562.36188	-41.11488	165.16353	-875.86865	-78.72662	141.20197				-708.30322	-34.17763	615.80853	-723.00458	-30.18585	569.30927	-675.20032	173.75098	155.83714	-594.39294	-19.56293	1050.78235	-582.39044	208.62065	1069.94568	-648.42523	-80.15318	864.56647	-716.21045	75.90083	217.71574	-690.99774	267.09653	752.90912	
356	7.100	-682.68738	-76.36705	1554.78040	-702.69995	-57.77306	720.34143	-591.99255	-11.39925	802.03552	-637.68323	273.12650	880.95782	-584.97540	208.13622	816.58972	-697.05402	75.65823	579.00452				-688.93097	137.71036	578.28784	-728.38129	239.66367	579.74933	-674.44873	13.31507	521.85297	-770.64178	248.49472	506.06305	-675.57397	199.60332	534.93335	-722.95068	243.73941	644.23083	-666.60229	-69.34287	160.83936	-710.36902	151.64935	216.28098	-882.66003	296.11053	144.51537	-674.86377	53.54617	158.83788	-603.62921	17.30958	167.12877	-594.44818	222.79301	173.24167	-667.76135	299.24188	159.84825	-630.55475	307.31909	162.49298	-561.08740	262.01840	166.21744	-528.11450	304.37653	146.40186	-708.51959	104.65691	1853.66809	-695.32648	287.59180	1535.45886	-625.37976	-80.34017	158.05263	-518.00269	-72.66540	142.60710	-794.91492	170.84431	184.55357	-770.96674	220.57434	205.61899	-792.63898	89.46649	1059.99426	-768.75348	-5.09542	207.44759	-793.38751	56.90893	175.97539	-771.02710	-37.33058	490.04764	-562.38977	-41.18560	165.08159	-875.98248	-78.81853	141.25104				-708.47693	-33.93637	615.88953	-722.90747	-30.17918	569.26563	-675.12286	173.45279	156.17934	-594.68494	-19.12472	1050.63269	-582.70428	208.86459	1069.80542	-648.65173	-80.09258	864.70966	-716.20996	76.07568	217.64679	-691.01031	267.45386	752.76440	
357	7.120	-682.60272	-76.03217	1554.82092	-702.52972	-57.68011	720.32684	-592.36218	-11.29306	801.87170	-637.84949	273.23126	880.72809	-584.97540	208.13622	816.58972	-696.88171	75.65160	579.15759				-688.93097	137.71036	578.28784	-728.27246	239.38951	579.75299	-674.50250	13.48387	521.84668	-770.76605	248.52556	505.79025	-675.74316	200.01491	534.96228	-723.32330	243.85667	644.22247	-666.50385	-69.25348	160.73132	-710.84106	151.34785	216.31538	-882.62518	296.03879	144.44261	-674.75800	53.39320	159.03697	-603.81323	17.05776	167.37386	-594.63428	222.94542	173.29498	-667.61572	299.07083	159.95946	-630.60114	307.38495	162.46251	-561.06665	261.91623	166.13632	-527.99078	304.21622	146.57008	-708.29480	104.87971	1853.64880	-695.34979	287.93961	1535.58899	-625.54303	-80.48997	158.23041	-517.84845	-72.93927	142.77460	-795.12689	170.68147	184.58049	-770.97961	220.46275	205.57167	-792.62878	89.63715	1059.97168	-768.77393	-5.11589	207.38651	-793.31836	56.66557	176.23219	-771.33160	-37.19559	490.01016	-562.36188	-41.11488	165.16353	-875.85522	-78.73365	141.22168				-708.56476	-33.85184	615.85028	-723.07184	-29.99161	569.35651	-675.04865	173.47795	156.34509	-594.83844	-19.02966	1050.48169	-582.81061	209.03323	1069.76489	-648.73456	-79.99395	864.80945	-716.21045	75.90083	217.71574	-690.97455	267.38843	752.52045	
358	7.140	-682.53595	-75.59936	1554.89502	-702.61670	-57.82251	720.49921	-592.53503	-11.04385	801.79602	-637.85779	273.45206	880.76105	-584.79517	208.36017	816.90588	-696.97614	75.90337	579.40405				-689.02795	137.87759	578.15576	-728.38129	239.66367	579.74933	-674.55487	13.48067	521.73743	-770.75555	248.77782	505.87396	-675.73199	200.08705	534.85248	-723.32800	244.31227	644.46655	-666.51404	-69.45663	161.03482	-710.52917	151.52512	216.31557	-882.52686	295.95218	144.47594	-674.75018	53.56323	158.69911	-603.76917	17.19858	167.22231	-594.47314	222.82878	173.28212	-667.59406	299.24429	159.99625	-630.67725	307.51340	162.56894	-561.01849	261.95566	166.23485	-528.20660	304.21338	146.40298	-707.98834	105.42461	1853.88782	-695.33051	288.02045	1535.47314	-625.25537	-80.35890	158.08279	-517.98401	-72.62912	142.49973	-794.97742	170.73479	184.54515	-770.97473	220.52298	205.69328	-792.54645	90.11028	1059.85498	-768.85498	-5.12377	207.25339	-793.36627	56.96911	175.85664	-771.15765	-37.16678	490.18613	-562.36188	-41.11488	165.16353	-875.85034	-78.68372	141.27127				-708.60822	-33.81378	615.94714	-723.07233	-29.83764	569.21167	-674.78870	173.36867	156.23911	-595.09790	-18.72500	1050.79565	-582.99811	209.25063	1069.62573	-648.91431	-79.77385	864.89984	-716.21045	75.90083	217.71574	-690.98804	267.41531	752.47156	
359	7.160	-682.56952	-75.15444	1554.85986	-702.69995	-57.77306	720.34143	-592.62238	-10.96796	801.89618	-637.87378	273.33841	880.51208	-584.81329	208.49712	816.90985	-697.13141	76.11016	579.22156				-689.19806	138.20674	578.17468	-728.35370	239.70265	579.64648	-674.43683	13.46484	521.73718	-770.80011	248.98055	505.69992	-675.70703	200.21089	534.97357	-723.24622	244.20291	644.26093	-666.33173	-69.32069	160.89302	-710.47455	151.50191	216.23994	-882.57355	295.99719	144.45621	-674.75018	53.56323	158.69911	-603.59814	17.40784	167.08238	-594.45087	223.09229	173.08792	-667.66357	299.14450	159.89316	-630.67725	307.51340	162.56894	-561.07562	261.94754	166.25758	-528.11450	304.37653	146.40186	-707.57745	105.85873	1853.93408	-695.16248	288.50647	1535.63123	-625.17871	-80.35165	158.16805	-518.02252	-72.75675	142.74126	-795.01312	170.79611	184.63205	-770.92554	220.55220	205.77167	-792.51056	90.32885	1059.70715	-768.78729	-5.11740	207.38919	-793.38635	56.58686	176.03876	-771.26575	-36.84113	489.96756	-562.36188	-41.11488	165.16353	-875.87347	-78.77656	141.15236				-708.65527	-33.74437	615.95435	-723.10498	-29.67465	569.17670	-675.12286	173.45279	156.17934	-595.38892	-18.05425	1050.60950	-582.99811	209.25063	1069.62573	-648.98505	-79.71080	864.87567	-716.20996	76.07568	217.64679	-690.96875	267.85800	752.76251	
360	7.180	-682.59326	-75.03114	1554.86121	-702.94928	-57.60102	720.15857	-592.71198	-10.91605	801.94647	-637.89923	273.99747	880.81677	-584.75769	208.79692	816.83282	-697.12848	76.53396	579.22577				-689.25500	138.09286	578.06207	-728.35370	239.70265	579.64648	-674.78125	13.53269	521.95874	-770.80676	249.38428	505.95303	-675.78833	200.10757	534.83508	-723.45599	244.44696	644.47009	-666.40430	-69.18741	160.74910	-710.50897	151.43935	216.16396	-882.59625	296.22037	144.63243	-674.63501	53.41415	158.98631	-603.69019	17.41733	167.20711	-594.49170	222.90256	173.18198	-667.60449	299.19614	159.89572	-630.47687	307.52914	162.56612	-560.96283	261.99634	166.12808	-528.20398	304.43774	146.45384	-707.44635	106.47536	1853.89990	-695.29083	288.97107	1535.41565	-625.28967	-80.52023	158.24554	-517.89569	-72.61459	142.63840	-795.16876	170.80403	184.49718	-770.95020	220.62518	205.72591	-792.59546	90.83051	1059.99585	-768.86371	-5.07465	207.35464	-793.17206	56.81610	175.97723	-771.31299	-36.84660	490.09457	-562.36188	-41.11488	165.16353	-875.85034	-78.68372	141.27127				-708.83325	-33.52745	615.87781	-723.27606	-29.71986	569.32257	-674.78870	173.36867	156.23911	-595.49786	-17.95061	1050.54102	-583.08905	209.47475	1069.47681	-649.30109	-79.42478	864.85406	-716.21045	75.90083	217.71574	-690.96094	267.93344	752.68524	
